<svg width="405" height="205" viewBox="0 0 405 205" fill="none" xmlns="http://www.w3.org/2000/svg">
<path d="M0.799999 132.781C0.519974 132.781 0.379961 132.781 0.273005 132.726C0.178924 132.678 0.102433 132.602 0.0544967 132.508C0 132.401 0 132.261 0 131.981V114.8C0 114.52 0 114.38 0.0544967 114.273C0.102433 114.179 0.178924 114.102 0.273005 114.054C0.379961 114 0.519974 114 0.8 114H69.4132C69.6932 114 69.8332 114 69.9402 114.054C70.0343 114.102 70.1108 114.179 70.1587 114.273C70.2132 114.38 70.2132 114.52 70.2132 114.8V131.981C70.2132 132.261 70.2132 132.401 70.1587 132.508C70.1108 132.602 70.0343 132.678 69.9402 132.726C69.8332 132.781 69.6932 132.781 69.4132 132.781H46.8725C46.5925 132.781 46.4524 132.781 46.3455 132.835C46.2514 132.883 46.1749 132.96 46.127 133.054C46.0725 133.161 46.0725 133.301 46.0725 133.581V202.054C46.0725 202.334 46.0725 202.474 46.018 202.581C45.9701 202.675 45.8936 202.751 45.7995 202.799C45.6925 202.854 45.5525 202.854 45.2725 202.854H24.7829C24.5029 202.854 24.3629 202.854 24.2559 202.799C24.1619 202.751 24.0854 202.675 24.0374 202.581C23.9829 202.474 23.9829 202.334 23.9829 202.054V133.581C23.9829 133.301 23.9829 133.161 23.9284 133.054C23.8805 132.96 23.804 132.883 23.7099 132.835C23.603 132.781 23.463 132.781 23.1829 132.781H0.799999Z" fill="white"/>
<path d="M101.686 204.432C92.7449 204.432 86.5388 201.486 83.0676 195.594C79.7015 189.597 78.0185 181.495 78.0185 171.289C78.0185 164.45 78.7548 158.506 80.2275 153.455C81.7001 148.405 84.172 144.512 87.6432 141.777C91.1144 138.936 95.7953 137.515 101.686 137.515C105.999 137.515 109.47 138.147 112.1 139.409C114.834 140.567 116.938 141.934 118.411 143.513C119.883 145.091 120.883 146.511 121.409 147.774C121.801 148.637 122.047 149.178 122.147 149.398C122.178 149.466 122.246 149.51 122.321 149.51C122.427 149.51 122.513 149.424 122.513 149.318V138.315C122.513 138.035 122.513 137.895 122.568 137.788C122.616 137.694 122.692 137.618 122.786 137.57C122.893 137.515 123.033 137.515 123.313 137.515H144.434C144.714 137.515 144.854 137.515 144.961 137.57C145.055 137.618 145.131 137.694 145.179 137.788C145.234 137.895 145.234 138.035 145.234 138.315V202.054C145.234 202.334 145.234 202.474 145.179 202.581C145.131 202.675 145.055 202.751 144.961 202.799C144.854 202.854 144.714 202.854 144.434 202.854H126.53C126.333 202.854 126.234 202.854 126.15 202.822C126.074 202.794 126.007 202.748 125.954 202.688C125.893 202.621 125.857 202.529 125.785 202.346L122.629 194.309C122.559 194.132 122.388 194.016 122.198 194.016C122.303 194.016 122.04 194.542 121.409 195.594C120.778 196.646 119.673 197.856 118.095 199.224C116.623 200.591 114.519 201.801 111.784 202.854C109.154 203.906 105.788 204.432 101.686 204.432ZM110.995 186.282C114.571 186.282 117.149 185.598 118.726 184.231C120.409 182.758 121.461 180.864 121.882 178.549C122.303 176.234 122.513 173.867 122.513 171.447C122.513 168.922 122.303 166.555 121.882 164.345C121.461 162.03 120.409 160.189 118.726 158.821C117.149 157.454 114.571 156.77 110.995 156.77C107.419 156.77 104.789 157.506 103.106 158.979C101.528 160.347 100.529 162.136 100.108 164.345C99.6873 166.555 99.4769 168.922 99.4769 171.447C99.4769 173.972 99.6873 176.392 100.108 178.707C100.529 180.916 101.528 182.758 103.106 184.231C104.789 185.598 107.419 186.282 110.995 186.282Z" fill="white"/>
<path d="M199.427 204.432C195.64 204.432 192.432 203.906 189.802 202.854C187.278 201.801 185.227 200.591 183.649 199.224C182.071 197.856 180.914 196.646 180.178 195.594C179.723 194.835 179.432 194.35 179.305 194.138C179.259 194.062 179.177 194.016 179.088 194.016C178.984 194.016 178.89 194.079 178.852 194.176L175.644 202.346C175.572 202.529 175.536 202.621 175.475 202.688C175.421 202.748 175.354 202.794 175.279 202.822C175.194 202.854 175.096 202.854 174.899 202.854H156.995C156.715 202.854 156.575 202.854 156.468 202.799C156.374 202.751 156.297 202.675 156.249 202.581C156.195 202.474 156.195 202.334 156.195 202.054V114.8C156.195 114.52 156.195 114.38 156.249 114.273C156.297 114.179 156.374 114.102 156.468 114.054C156.575 114 156.715 114 156.995 114H178.115C178.395 114 178.536 114 178.642 114.054C178.737 114.102 178.813 114.179 178.861 114.273C178.915 114.38 178.915 114.52 178.915 114.8V149.312C178.915 149.421 179.004 149.51 179.113 149.51C179.186 149.51 179.252 149.471 179.287 149.407C179.403 149.194 179.7 148.649 180.178 147.774C180.809 146.511 181.861 145.091 183.333 143.513C184.806 141.934 186.857 140.567 189.487 139.409C192.117 138.147 195.43 137.515 199.427 137.515C209.105 137.515 215.784 140.514 219.466 146.511C223.147 152.403 224.988 160.768 224.988 171.605C224.988 178.339 224.199 184.178 222.621 189.123C221.149 194.068 218.571 197.856 214.89 200.486C211.208 203.117 206.054 204.432 199.427 204.432ZM191.223 186.282C195.009 186.282 197.744 185.598 199.427 184.231C201.215 182.758 202.32 180.916 202.741 178.707C203.267 176.392 203.53 173.972 203.53 171.447C203.53 168.922 203.267 166.555 202.741 164.345C202.32 162.03 201.215 160.189 199.427 158.821C197.744 157.454 195.009 156.77 191.223 156.77C187.541 156.77 184.806 157.454 183.018 158.821C181.23 160.189 180.073 162.03 179.547 164.345C179.126 166.555 178.915 168.922 178.915 171.447C178.915 173.972 179.126 176.392 179.547 178.707C180.073 180.916 181.23 182.758 183.018 184.231C184.806 185.598 187.541 186.282 191.223 186.282Z" fill="white"/>
<path d="M238.836 202.854C238.556 202.854 238.416 202.854 238.309 202.799C238.215 202.751 238.138 202.675 238.09 202.581C238.036 202.474 238.036 202.334 238.036 202.054V114.8C238.036 114.52 238.036 114.38 238.09 114.273C238.138 114.179 238.215 114.102 238.309 114.054C238.416 114 238.556 114 238.836 114H258.694C258.974 114 259.114 114 259.221 114.054C259.315 114.102 259.392 114.179 259.44 114.273C259.494 114.38 259.494 114.52 259.494 114.8V202.054C259.494 202.334 259.494 202.474 259.44 202.581C259.392 202.675 259.315 202.751 259.221 202.799C259.114 202.854 258.974 202.854 258.694 202.854H238.836Z" fill="white"/>
<path d="M303.608 204.432C295.719 204.432 289.355 202.854 284.516 199.697C279.678 196.541 276.101 192.49 273.787 187.545C271.578 182.495 270.369 177.234 270.158 171.763C269.948 164.608 271.21 158.453 273.945 153.298C276.68 148.037 280.519 144.039 285.463 141.303C290.512 138.462 296.297 137.042 302.819 137.042C309.025 137.042 314.548 138.357 319.386 140.988C324.33 143.513 328.17 147.143 330.904 151.877C333.745 156.612 335.164 162.293 335.164 168.922V172.225C335.164 172.505 335.164 172.645 335.11 172.752C335.062 172.846 334.986 172.923 334.892 172.971C334.785 173.025 334.645 173.025 334.365 173.025H291.785C291.506 173.025 291.366 173.025 291.257 173.082C291.164 173.131 291.084 173.212 291.038 173.307C290.985 173.417 290.989 173.554 290.997 173.826C291.119 178.045 292.219 181.145 294.299 183.126C296.613 185.23 299.558 186.282 303.135 186.282C306.185 186.282 308.604 185.598 310.393 184.231C312.088 182.912 313.15 181.298 313.581 179.389C313.64 179.128 313.669 178.997 313.73 178.914C313.786 178.836 313.85 178.785 313.938 178.747C314.032 178.707 314.155 178.707 314.4 178.707H334.15C334.447 178.707 334.596 178.707 334.708 178.768C334.805 178.821 334.885 178.909 334.928 179.011C334.978 179.128 334.964 179.272 334.936 179.56C334.518 183.868 333.174 187.897 330.904 191.648C328.485 195.541 325.014 198.645 320.491 200.96C315.968 203.274 310.34 204.432 303.608 204.432ZM291.4 163.299C291.366 163.607 291.348 163.76 291.398 163.879C291.441 163.984 291.519 164.07 291.618 164.125C291.731 164.187 291.885 164.187 292.195 164.187H312.181C312.491 164.187 312.645 164.187 312.758 164.125C312.857 164.07 312.935 163.984 312.978 163.879C313.028 163.76 313.01 163.607 312.976 163.299C312.959 163.143 312.939 162.965 312.917 162.767C312.917 161.82 312.602 160.715 311.97 159.453C311.339 158.19 310.288 157.085 308.815 156.138C307.342 155.191 305.186 154.718 302.346 154.718C299.506 154.718 297.297 155.191 295.719 156.138C294.141 157.085 293.037 158.19 292.405 159.453C291.88 160.715 291.564 161.82 291.459 162.767C291.437 162.965 291.417 163.143 291.4 163.299Z" fill="white"/>
<path d="M376.13 204.432C375.394 204.432 373.816 204.327 371.397 204.116C369.082 204.011 366.4 203.59 363.35 202.854C360.404 202.012 357.512 200.697 354.672 198.908C351.832 197.119 349.465 194.7 347.571 191.648C345.881 188.664 344.989 184.88 344.897 180.296C344.892 180.022 344.889 179.884 344.942 179.775C344.989 179.681 345.068 179.6 345.161 179.552C345.27 179.496 345.409 179.496 345.689 179.496H364.285C364.565 179.496 364.705 179.496 364.812 179.551C364.906 179.598 364.983 179.675 365.031 179.769C365.085 179.876 365.085 180.016 365.085 180.296C365.085 180.512 365.085 180.772 365.085 181.074C365.19 182.021 365.506 183.073 366.032 184.231C366.663 185.388 367.662 186.44 369.03 187.387C370.502 188.229 372.659 188.65 375.499 188.65C379.075 188.65 381.284 188.018 382.126 186.756C382.967 185.493 383.388 184.546 383.388 183.915C383.388 182.337 382.494 181.074 380.706 180.127C378.918 179.18 376.603 178.339 373.763 177.602C370.923 176.76 367.873 175.866 364.612 174.919C361.456 173.867 358.458 172.552 355.618 170.974C352.778 169.29 350.464 167.133 348.676 164.503C346.888 161.873 345.994 158.506 345.994 154.402C345.994 147.669 348.465 142.776 353.409 139.725C358.458 136.674 364.77 135.148 372.343 135.148C381.81 135.148 389.489 137.358 395.379 141.777C401.179 145.949 404.272 152.041 404.659 160.053C404.672 160.333 404.679 160.473 404.626 160.585C404.581 160.682 404.502 160.765 404.407 160.815C404.297 160.873 404.154 160.873 403.868 160.873H385.608C385.328 160.873 385.188 160.873 385.084 160.822C384.989 160.776 384.918 160.708 384.867 160.616C384.811 160.515 384.803 160.367 384.788 160.073C384.622 156.83 383.419 154.624 381.179 153.455C378.865 152.193 376.288 151.562 373.448 151.562C370.397 151.562 368.399 152.088 367.452 153.14C366.505 154.087 366.032 155.086 366.032 156.138C366.032 158.032 366.926 159.558 368.714 160.715C370.608 161.767 372.974 162.714 375.814 163.556C378.76 164.398 381.863 165.292 385.124 166.239C388.49 167.186 391.593 168.448 394.433 170.027C397.378 171.5 399.745 173.499 401.533 176.024C403.426 178.444 404.373 181.6 404.373 185.493C404.373 191.596 401.849 196.278 396.8 199.539C391.856 202.801 384.966 204.432 376.13 204.432Z" fill="white"/>
<path d="M397.413 94.372C397.292 94.6111 397.231 94.7307 397.138 94.8007C397.057 94.8621 396.957 94.8971 396.855 94.9007C396.739 94.9047 396.617 94.8498 396.373 94.74C392.891 93.1737 389.546 91.6074 386.338 90.0411C383.193 88.4579 380.188 86.8279 377.323 85.151C377.152 85.0507 377.066 85.0006 376.978 84.985C376.898 84.9711 376.82 84.9762 376.743 85C376.657 85.0266 376.578 85.0878 376.419 85.2102C371.763 88.8006 366.62 91.507 360.988 93.3296C355.182 95.2088 349.376 96.0962 343.57 95.9918C337.868 95.8874 332.632 94.8434 327.863 92.8598C323.094 90.7719 319.258 87.7966 316.355 83.9339C313.452 79.9668 312 75.0602 312 69.2139C312 64.5161 312.933 60.6534 314.799 57.6259C316.769 54.5984 318.998 52.2494 321.487 50.5791C323.975 48.9087 326.152 47.7604 328.018 47.134C328.685 46.9221 329.238 46.7461 329.679 46.6059C330.105 46.4705 330.318 46.4029 330.414 46.2737C330.498 46.161 330.53 46.0182 330.504 45.8802C330.473 45.7221 330.311 45.5688 329.986 45.2622C329.599 44.8972 329.099 44.4249 328.485 43.8455C326.826 42.2795 325.167 40.035 323.508 37.1119C321.953 34.0843 321.176 30.4304 321.176 26.1502C321.176 21.5567 322.42 17.7462 324.908 14.7187C327.5 11.5868 330.766 9.23787 334.706 7.67191C338.749 6.00156 343 5.11418 347.458 5.00979C352.02 4.90539 356.271 5.63617 360.211 7.20212C364.254 8.66368 367.52 10.9604 370.008 14.0923C372.6 17.2242 373.896 21.1913 373.896 25.9936C373.896 29.8563 373.067 33.197 371.408 36.0157C369.853 38.8344 367.987 41.1833 365.809 43.0625C363.632 44.9416 361.714 46.351 360.055 47.2906C359.475 47.6021 359.003 47.8554 358.64 48.0508C358.328 48.2183 358.172 48.3021 358.101 48.4238C358.038 48.5304 358.018 48.6563 358.043 48.7772C358.071 48.9152 358.192 49.0442 358.434 49.3021C358.874 49.7712 359.518 50.4579 360.366 51.362C362.189 53.0954 365.001 55.6255 368.801 58.9522C368.832 58.979 368.847 58.9924 368.961 59.0223C369.016 59.0369 369.209 59.0274 369.263 59.0075C369.373 58.9666 369.32 59.0231 369.341 59.0005C369.467 58.8664 369.637 58.6692 369.853 58.4088C370.371 57.6781 370.838 56.7907 371.252 55.7467C371.667 54.5984 371.719 53.3978 371.408 52.145C371.241 51.0521 370.637 49.993 369.596 48.9677C369.307 48.6832 369.162 48.5409 369.128 48.4074C369.096 48.2837 369.107 48.1724 369.164 48.0581C369.226 47.9347 369.384 47.8334 369.701 47.6308L386.747 36.7215C386.818 36.676 386.853 36.6533 386.968 36.6399C387.034 36.6322 387.201 36.6634 387.26 36.6948C387.362 36.7488 387.372 36.7635 387.394 36.7931C387.601 37.0764 387.923 37.5481 388.36 38.208C389.293 39.4608 390.278 41.1833 391.314 43.3757C392.351 45.568 393.129 48.1779 393.647 51.2054C394.269 54.1286 394.217 57.3127 393.492 60.7578C392.912 63.8687 391.434 67.1154 389.057 70.498C388.869 70.7649 388.775 70.8984 388.762 71.0273C388.749 71.1423 388.776 71.2531 388.838 71.3503C388.908 71.4593 389.049 71.5349 389.332 71.686C390.923 72.538 392.776 73.5409 394.891 74.6948C397.318 75.9654 400.426 77.419 404.216 79.0556C404.489 79.1737 404.626 79.2327 404.704 79.3303C404.773 79.4163 404.811 79.5218 404.813 79.6318C404.816 79.7567 404.749 79.8891 404.614 80.1539L397.413 94.372ZM345.325 38.0589C345.471 38.2217 345.544 38.3031 345.637 38.3465C345.718 38.3839 345.814 38.3996 345.902 38.3899C346.005 38.3786 346.101 38.324 346.293 38.2148C349.031 36.659 351.131 35.1952 352.59 33.8233C354.145 32.2574 355.13 30.7436 355.545 29.2821C355.96 26.881 355.441 25.0018 353.99 23.6446C352.538 22.2875 350.724 21.5567 348.547 21.4523C346.37 21.2435 344.452 21.7133 342.793 22.8617C341.237 23.9056 340.512 25.6804 340.615 28.1859C340.813 31.4769 342.383 34.7679 345.325 38.0589ZM359.357 73.1152C359.592 72.9185 359.709 72.8202 359.755 72.6926C359.794 72.5837 359.793 72.4553 359.753 72.347C359.705 72.2202 359.58 72.1196 359.332 71.9185C356.011 69.2306 353.142 66.8153 350.724 64.6726C348.357 62.3888 345.85 59.7271 343.202 56.6876C343.054 56.5186 342.981 56.4341 342.89 56.3897C342.81 56.3507 342.72 56.3335 342.631 56.3405C342.53 56.3485 342.433 56.399 342.237 56.5002C340.158 57.5785 338.166 58.7889 336.261 60.1314C334.187 61.4886 333.151 63.6287 333.151 66.5518C333.151 69.2661 334.084 71.5107 335.95 73.2854C337.816 75.0602 340.149 76.2607 342.948 76.8871C345.851 77.5135 348.806 77.5135 351.813 76.8871C354.624 76.2267 357.138 74.9694 359.357 73.1152Z" fill="white"/>
<path d="M0.8 24.4624C0.519974 24.4624 0.379961 24.4624 0.273005 24.4079C0.178924 24.3599 0.102433 24.2834 0.0544967 24.1894C0 24.0824 0 23.9424 0 23.6624V6.48158C0 6.20156 0 6.06154 0.0544967 5.95459C0.102433 5.86051 0.178924 5.78402 0.273005 5.73608C0.379961 5.68158 0.519974 5.68158 0.8 5.68158H69.4132C69.6932 5.68158 69.8333 5.68158 69.9402 5.73608C70.0343 5.78402 70.1108 5.86051 70.1587 5.95459C70.2132 6.06154 70.2132 6.20156 70.2132 6.48158V23.6624C70.2132 23.9424 70.2132 24.0824 70.1587 24.1894C70.1108 24.2834 70.0343 24.3599 69.9402 24.4079C69.8333 24.4624 69.6932 24.4624 69.4132 24.4624H46.8725C46.5925 24.4624 46.4525 24.4624 46.3455 24.5169C46.2514 24.5648 46.1749 24.6413 46.127 24.7354C46.0725 24.8423 46.0725 24.9823 46.0725 25.2624V93.7352C46.0725 94.0152 46.0725 94.1552 46.018 94.2622C45.9701 94.3563 45.8936 94.4328 45.7995 94.4807C45.6925 94.5352 45.5525 94.5352 45.2725 94.5352H24.7829C24.5029 94.5352 24.3629 94.5352 24.2559 94.4807C24.1619 94.4328 24.0854 94.3563 24.0374 94.2622C23.9829 94.1552 23.9829 94.0152 23.9829 93.7352V25.2624C23.9829 24.9823 23.9829 24.8423 23.9284 24.7354C23.8805 24.6413 23.804 24.5648 23.7099 24.5169C23.603 24.4624 23.463 24.4624 23.1829 24.4624H0.8Z" fill="white"/>
<path d="M101.686 96.1134C92.7449 96.1134 86.5388 93.1674 83.0676 87.2754C79.7015 81.2782 78.0185 73.1767 78.0185 62.9709C78.0185 56.1319 78.7548 50.1873 80.2275 45.137C81.7001 40.0867 84.172 36.1938 87.6432 33.4582C91.1145 30.6174 95.7953 29.197 101.686 29.197C105.999 29.197 109.47 29.8283 112.1 31.0909C114.834 32.2482 116.938 33.616 118.411 35.1942C119.883 36.7725 120.883 38.1929 121.409 39.4554C121.801 40.3184 122.047 40.8596 122.147 41.0791C122.178 41.1477 122.246 41.1915 122.321 41.1915C122.427 41.1915 122.513 41.1055 122.513 40.9995V29.997C122.513 29.717 122.513 29.577 122.568 29.47C122.616 29.3759 122.692 29.2994 122.786 29.2515C122.893 29.197 123.033 29.197 123.313 29.197H144.434C144.714 29.197 144.854 29.197 144.961 29.2515C145.055 29.2994 145.131 29.3759 145.179 29.47C145.234 29.577 145.234 29.717 145.234 29.997V93.7352C145.234 94.0152 145.234 94.1552 145.179 94.2622C145.131 94.3563 145.055 94.4328 144.961 94.4807C144.854 94.5352 144.714 94.5352 144.434 94.5352H126.53C126.333 94.5352 126.234 94.5352 126.15 94.5033C126.075 94.4752 126.007 94.4294 125.954 94.3698C125.893 94.3024 125.857 94.2108 125.785 94.0277L122.629 85.9909C122.559 85.8137 122.388 85.6972 122.198 85.6972C122.303 85.6972 122.04 86.2233 121.409 87.2754C120.778 88.3275 119.673 89.5375 118.095 90.9053C116.623 92.2731 114.519 93.483 111.784 94.5352C109.154 95.5873 105.788 96.1134 101.686 96.1134ZM110.995 77.9639C114.571 77.9639 117.149 77.28 118.726 75.9122C120.409 74.4392 121.461 72.5454 121.882 70.2307C122.303 67.9159 122.513 65.5486 122.513 63.1287C122.513 60.6035 122.303 58.2362 121.882 56.0267C121.461 53.712 120.409 51.8707 118.726 50.5029C117.149 49.1352 114.571 48.4513 110.995 48.4513C107.419 48.4513 104.789 49.1878 103.106 50.6608C101.528 52.0286 100.529 53.8172 100.108 56.0267C99.6873 58.2362 99.4769 60.6035 99.4769 63.1287C99.4769 65.6538 99.6873 68.0738 100.108 70.3885C100.529 72.598 101.528 74.4392 103.106 75.9122C104.789 77.28 107.419 77.9639 110.995 77.9639Z" fill="white"/>
<path d="M167.203 21.7794C162.679 21.8846 159.682 20.8325 158.209 18.623C156.736 16.4135 156 13.7831 156 10.7319C156 7.78587 156.736 5.26073 158.209 3.15643C159.787 1.05215 162.785 0 167.203 0C171.515 0 174.408 1.05215 175.881 3.15643C177.353 5.26073 178.09 7.78587 178.09 10.7319C178.09 13.8883 177.353 16.5187 175.881 18.623C174.408 20.622 171.515 21.6742 167.203 21.7794ZM156.958 94.5352C156.678 94.5352 156.538 94.5352 156.431 94.4807C156.337 94.4328 156.26 94.3563 156.212 94.2622C156.158 94.1552 156.158 94.0152 156.158 93.7352V29.997C156.158 29.717 156.158 29.577 156.212 29.47C156.26 29.3759 156.337 29.2994 156.431 29.2515C156.538 29.197 156.678 29.197 156.958 29.197H177.447C177.727 29.197 177.867 29.197 177.974 29.2515C178.068 29.2994 178.145 29.3759 178.193 29.47C178.247 29.577 178.247 29.717 178.247 29.997V93.7352C178.247 94.0152 178.247 94.1552 178.193 94.2622C178.145 94.3563 178.068 94.4328 177.974 94.4807C177.867 94.5352 177.727 94.5352 177.447 94.5352H156.958Z" fill="white"/>
<path d="M195.538 94.5352C195.258 94.5352 195.118 94.5352 195.011 94.4807C194.917 94.4328 194.841 94.3563 194.793 94.2622C194.738 94.1552 194.738 94.0152 194.738 93.7352V6.48159C194.738 6.20156 194.738 6.06154 194.793 5.95459C194.841 5.86051 194.917 5.78402 195.011 5.73608C195.118 5.68158 195.258 5.68158 195.538 5.68158H215.397C215.677 5.68158 215.817 5.68158 215.924 5.73608C216.018 5.78402 216.094 5.86051 216.142 5.95459C216.197 6.06154 216.197 6.20156 216.197 6.48158V93.7352C216.197 94.0152 216.197 94.1552 216.142 94.2622C216.094 94.3563 216.018 94.4328 215.924 94.4807C215.817 94.5352 215.677 94.5352 215.397 94.5352H195.538Z" fill="white"/>
<path d="M258.101 96.1134C257.365 96.1134 255.787 96.0082 253.368 95.7978C251.054 95.6926 248.371 95.2717 245.321 94.5352C242.376 93.6935 239.483 92.3783 236.643 90.5897C233.803 88.801 231.436 86.3811 229.543 83.3299C227.852 80.3454 226.961 76.5615 226.868 71.978C226.863 71.7034 226.86 71.566 226.914 71.4569C226.96 71.3621 227.039 71.282 227.133 71.2335C227.241 71.1776 227.381 71.1776 227.66 71.1776H246.257C246.537 71.1776 246.677 71.1776 246.784 71.2321C246.878 71.28 246.954 71.3565 247.002 71.4506C247.057 71.5575 247.057 71.6975 247.057 71.9774C247.057 72.1939 247.057 72.4534 247.057 72.7558C247.162 73.7027 247.477 74.7549 248.003 75.9122C248.634 77.0696 249.634 78.1217 251.001 79.0687C252.474 79.9104 254.63 80.3312 257.47 80.3312C261.047 80.3312 263.256 79.7 264.097 78.4374C264.939 77.1748 265.359 76.2279 265.359 75.5966C265.359 74.0184 264.465 72.7558 262.677 71.8089C260.889 70.8619 258.575 70.0202 255.735 69.2837C252.895 68.442 249.844 67.5477 246.583 66.6008C243.428 65.5486 240.43 64.2334 237.59 62.6552C234.75 60.9718 232.435 58.8149 230.647 56.1845C228.859 53.5542 227.965 50.1873 227.965 46.0839C227.965 39.3502 230.437 34.4577 235.381 31.4065C240.43 28.3553 246.741 26.8297 254.315 26.8297C263.782 26.8297 271.46 29.0392 277.351 33.4582C283.15 37.6308 286.243 43.723 286.63 51.7347C286.644 52.0144 286.65 52.1543 286.598 52.2665C286.552 52.3636 286.473 52.4467 286.378 52.4968C286.269 52.5546 286.126 52.5546 285.84 52.5546H267.579C267.299 52.5546 267.159 52.5546 267.055 52.5036C266.961 52.4571 266.89 52.3898 266.838 52.2975C266.782 52.1961 266.774 52.0488 266.759 51.7542C266.593 48.5115 265.39 46.3058 263.15 45.137C260.836 43.8744 258.259 43.2431 255.419 43.2431C252.369 43.2431 250.37 43.7692 249.423 44.8214C248.477 45.7683 248.003 46.7678 248.003 47.82C248.003 49.7138 248.897 51.2394 250.686 52.3968C252.579 53.449 254.946 54.3959 257.786 55.2376C260.731 56.0793 263.834 56.9736 267.095 57.9206C270.461 58.8675 273.564 60.1301 276.404 61.7083C279.349 63.1813 281.716 65.1804 283.504 67.7055C285.398 70.1254 286.344 73.2819 286.344 77.1748C286.344 83.2773 283.82 87.9593 278.771 91.2209C273.827 94.4826 266.937 96.1134 258.101 96.1134Z" fill="white"/>
</svg>
