<svg width="512" height="512" viewBox="0 0 512 512" fill="none" xmlns="http://www.w3.org/2000/svg">
<g clip-path="url(#clip0_114_527)">
<rect width="512" height="512" rx="50" fill="white"/>
<path fill-rule="evenodd" clip-rule="evenodd" d="M75.5879 85C69.1881 85 64 89.8933 64 95.9295C64 101.966 69.1881 106.859 75.5879 106.859L175.989 106.859C157.54 106.926 147.457 128.438 159.244 142.664L192.967 183.365L201.119 193.203C204.464 191.124 208.412 189.923 212.641 189.923C224.713 189.923 234.5 199.709 234.5 211.782C234.5 217.477 232.322 222.664 228.753 226.554L238.043 237.767C242.368 242.986 244.734 249.551 244.734 256.329C244.734 334.802 184.381 399.129 107.718 405.104L107.718 336.378C107.718 330.342 102.825 325.449 96.7885 325.449C90.7523 325.449 85.859 330.342 85.859 336.378L85.859 415.071C85.859 415.191 85.8609 415.311 85.8648 415.43C85.8609 415.546 85.859 415.662 85.859 415.779C85.859 421.424 90.4186 426 96.0435 426C96.238 426 96.4324 426 96.6268 425.999C96.6579 425.999 96.689 426 96.7202 426C96.7429 426 96.7657 426 96.7885 426C96.877 426 96.9653 425.999 97.0533 425.997C171.171 425.562 233.986 377.259 256.359 310.333C278.732 377.259 341.547 425.562 415.665 425.997C415.753 425.999 415.841 426 415.929 426C415.956 426 415.983 426 416.009 426C416.037 426 416.064 425.999 416.091 425.999C416.286 426 416.48 426 416.674 426C422.299 426 426.859 421.424 426.859 415.779C426.859 415.662 426.857 415.546 426.853 415.43C426.857 415.311 426.859 415.191 426.859 415.071V336.378C426.859 330.342 421.966 325.449 415.929 325.449C409.893 325.449 405 330.342 405 336.378V405.104C328.337 399.129 267.984 334.802 267.984 256.329C267.984 249.551 270.351 242.985 274.675 237.765L283.965 226.554C280.396 222.664 278.218 217.477 278.218 211.782C278.218 199.709 288.005 189.923 300.077 189.923C304.305 189.923 308.253 191.123 311.599 193.202L353.473 142.664C365.26 128.439 355.178 106.929 336.732 106.859L437.13 106.859C443.53 106.859 448.718 101.966 448.718 95.9295C448.718 89.8933 443.53 85 437.13 85L75.5879 85ZM160.179 314.519C154.143 314.519 149.25 319.412 149.25 325.449C149.25 331.485 154.143 336.378 160.179 336.378C166.216 336.378 171.109 331.485 171.109 325.449C171.109 319.412 166.216 314.519 160.179 314.519ZM363.468 325.449C363.468 319.412 358.575 314.519 352.538 314.519C346.502 314.519 341.609 319.412 341.609 325.449C341.609 331.485 346.502 336.378 352.538 336.378C358.575 336.378 363.468 331.485 363.468 325.449ZM118.647 259.872C112.611 259.872 107.718 264.765 107.718 270.801C107.718 276.837 112.611 281.731 118.647 281.731C124.684 281.731 129.577 276.837 129.577 270.801C129.577 264.765 124.684 259.872 118.647 259.872ZM405 270.801C405 264.765 400.107 259.872 394.07 259.872C388.034 259.872 383.141 264.765 383.141 270.801C383.141 276.837 388.034 281.731 394.07 281.731C400.107 281.731 405 276.837 405 270.801ZM190.782 248.942C190.782 242.906 195.675 238.013 201.712 238.013C207.748 238.013 212.641 242.906 212.641 248.942C212.641 254.979 207.748 259.872 201.712 259.872C195.675 259.872 190.782 254.979 190.782 248.942ZM311.006 238.013C317.043 238.013 321.936 242.906 321.936 248.942C321.936 254.979 317.043 259.872 311.006 259.872C304.97 259.872 300.077 254.979 300.077 248.942C300.077 242.906 304.97 238.013 311.006 238.013Z" fill="#FEBA01"/>
</g>
<defs>
<clipPath id="clip0_114_527">
<rect width="512" height="512" rx="50" fill="white"/>
</clipPath>
</defs>
</svg>
